<svg width="25" height="25" viewBox="0 0 25 25" fill="none" xmlns="http://www.w3.org/2000/svg">
<path fill-rule="evenodd" clip-rule="evenodd" d="M19.6001 19.8779C20.1901 18.9779 20.4101 18.5179 20.8601 17.5079C17.5401 16.2479 17.0101 11.5179 20.2901 9.70789C19.2901 8.44789 17.8801 7.7179 16.5501 7.7179C15.5901 7.7179 14.9301 7.96791 14.3401 8.19791C13.8401 8.38791 13.3901 8.55789 12.8301 8.55789C12.2301 8.55789 11.7001 8.36791 11.1401 8.16791C10.5301 7.94791 9.89006 7.7179 9.09006 7.7179C7.60006 7.7179 6.01007 8.6279 5.00007 10.1879C3.58007 12.3879 3.83007 16.5079 6.12007 20.0279C6.94007 21.2879 8.04007 22.6979 9.47007 22.7179C10.0701 22.7279 10.4601 22.5479 10.8901 22.3579C11.3801 22.1379 11.9101 21.8979 12.8401 21.8979C13.7701 21.8879 14.2901 22.1379 14.7801 22.3579C15.2001 22.5479 15.5801 22.7279 16.1701 22.7179C17.6201 22.6979 18.7801 21.1379 19.6001 19.8779Z" fill="#1A1A1A"/>
<path fill-rule="evenodd" clip-rule="evenodd" d="M16.3399 2.7179C16.4999 3.8179 16.0499 4.90791 15.4599 5.66791C14.8299 6.48791 13.7299 7.12789 12.6699 7.08789C12.4799 6.02789 12.9699 4.93789 13.5699 4.20789C14.2399 3.40789 15.3699 2.7879 16.3399 2.7179Z" fill="#1A1A1A"/>
</svg>
