<svg width="24" height="25" viewBox="0 0 24 25" fill="none" xmlns="http://www.w3.org/2000/svg">
<path d="M21.4 13.6679L18.62 15.0579C18.43 15.1579 18.2 15.1179 18.04 14.9679L16.17 13.0979C15.97 12.8979 15.97 12.5879 16.17 12.3879L18.07 10.4879C18.22 10.3379 18.46 10.2979 18.65 10.3979L21.4 11.7779C22.19 12.1579 22.19 13.2779 21.4 13.6679Z" fill="#1A1A1A"/>
<path d="M16.3 9.20786C16.61 9.35786 16.67 9.76788 16.43 10.0079L14.76 11.6779L14.05 12.3879C13.85 12.5879 13.54 12.5879 13.34 12.3879L6.19997 5.24787C5.79997 4.84787 6.26997 4.19788 6.77997 4.44788L16.3 9.20786Z" fill="#1A1A1A"/>
<path d="M2 20.8678V4.19786C2 3.75786 2.53 3.52784 2.85 3.83784L11.62 12.3478C11.83 12.5478 11.82 12.8778 11.61 13.0778L2.84 21.2378C2.52 21.5378 2 21.3078 2 20.8678Z" fill="#1A1A1A"/>
<path d="M16.2701 16.2379L6.88007 20.9379C6.37007 21.1879 5.90007 20.5379 6.30007 20.1379L13.3501 13.0879C13.5501 12.8879 13.8601 12.8879 14.0601 13.0879L16.4101 15.4379C16.6401 15.6779 16.5701 16.0879 16.2701 16.2379Z" fill="#1A1A1A"/>
</svg>
