<svg width="33" height="32" viewBox="0 0 33 32" fill="none" xmlns="http://www.w3.org/2000/svg">
<path d="M11.6327 17.8656C11.9781 17.8656 12.2582 17.5856 12.2582 17.2402C12.2582 16.8948 11.9781 16.6147 11.6327 16.6147C11.2873 16.6147 11.0073 16.8948 11.0073 17.2402C11.0073 17.5856 11.2873 17.8656 11.6327 17.8656Z" fill="#41FDA8"/>
<path d="M15.8857 17.8656C16.2311 17.8656 16.5111 17.5856 16.5111 17.2402C16.5111 16.8948 16.2311 16.6147 15.8857 16.6147C15.5403 16.6147 15.2603 16.8948 15.2603 17.2402C15.2603 17.5856 15.5403 17.8656 15.8857 17.8656Z" fill="#41FDA8"/>
<path d="M24.3196 22.9047H24.9092C25.0182 22.9048 25.1227 22.9482 25.1997 23.0252C25.2768 23.1023 25.3201 23.2067 25.3202 23.3157C25.3202 23.4152 25.3598 23.5107 25.4301 23.5811C25.5005 23.6514 25.596 23.691 25.6955 23.691C25.795 23.691 25.8905 23.6514 25.9608 23.5811C26.0312 23.5107 26.0707 23.4152 26.0707 23.3157C26.0705 23.1617 26.0398 23.0093 25.9802 22.8673C25.9207 22.7253 25.8335 22.5966 25.7238 22.4885C25.6141 22.3805 25.4841 22.2953 25.3412 22.2379C25.1983 22.1805 25.0454 22.152 24.8915 22.1542V21.7432C24.8915 21.6436 24.8519 21.5482 24.7815 21.4778C24.7112 21.4075 24.6157 21.3679 24.5162 21.3679C24.4167 21.3679 24.3212 21.4075 24.2509 21.4778C24.1805 21.5482 24.141 21.6436 24.141 21.7432V22.1685C23.8012 22.2158 23.492 22.39 23.2755 22.656C23.0589 22.922 22.9512 23.2602 22.9738 23.6024C22.9964 23.9447 23.1478 24.2657 23.3974 24.5009C23.6471 24.7361 23.9766 24.8681 24.3196 24.8702H24.7128C24.8718 24.8735 25.0232 24.9389 25.1345 25.0525C25.2458 25.1661 25.3082 25.3187 25.3082 25.4778C25.3082 25.6368 25.2458 25.7895 25.1345 25.9031C25.0232 26.0167 24.8718 26.0821 24.7128 26.0853H24.1232C24.0142 26.0852 23.9098 26.0418 23.8327 25.9648C23.7556 25.8877 23.7123 25.7832 23.7122 25.6743C23.7122 25.5748 23.6726 25.4793 23.6023 25.4089C23.5319 25.3386 23.4364 25.299 23.3369 25.299C23.2374 25.299 23.142 25.3386 23.0716 25.4089C23.0012 25.4793 22.9617 25.5748 22.9617 25.6743C22.9619 25.8283 22.9927 25.9806 23.0522 26.1226C23.1118 26.2646 23.1989 26.3934 23.3086 26.5014C23.4183 26.6095 23.5484 26.6947 23.6913 26.7521C23.8341 26.8095 23.987 26.8379 24.141 26.8358V27.2468C24.141 27.3463 24.1805 27.4418 24.2509 27.5122C24.3212 27.5825 24.4167 27.6221 24.5162 27.6221C24.6157 27.6221 24.7112 27.5825 24.7815 27.5122C24.8519 27.4418 24.8915 27.3463 24.8915 27.2468V26.8228C25.233 26.7775 25.5446 26.6041 25.763 26.3376C25.9815 26.0711 26.0903 25.7315 26.0676 25.3876C26.0449 25.0438 25.8923 24.7215 25.6407 24.4861C25.3891 24.2506 25.0574 24.1197 24.7128 24.1197H24.3196C24.1606 24.1165 24.0092 24.0511 23.8979 23.9375C23.7866 23.8239 23.7242 23.6712 23.7242 23.5122C23.7242 23.3532 23.7866 23.2005 23.8979 23.0869C24.0092 22.9733 24.1606 22.9079 24.3196 22.9047Z" fill="#41FDA8"/>
<path d="M4.65814 26.3037L5.17848 30.9743C5.20934 31.2565 5.34339 31.5173 5.55489 31.7066C5.76638 31.896 6.04039 32.0004 6.32424 32H9.34125C9.6251 32.0004 9.89911 31.896 10.1106 31.7066C10.3221 31.5173 10.4562 31.2565 10.487 30.9743L10.6621 29.3958C12.7002 29.8648 14.8182 29.8648 16.8562 29.3958L17.0314 30.9743C17.0622 31.2565 17.1963 31.5173 17.4078 31.7066C17.6193 31.896 17.8933 32.0004 18.1771 32H19.6581C19.7376 31.9986 19.8147 31.9722 19.8783 31.9245C19.942 31.8768 19.9889 31.8102 20.0125 31.7342C20.0361 31.6583 20.035 31.5768 20.0096 31.5014C19.9841 31.4261 19.9355 31.3607 19.8707 31.3145C18.4117 30.3218 17.3093 28.8875 16.7254 27.2221C16.1415 25.5567 16.1068 23.748 16.6266 22.0615C17.1463 20.375 18.193 18.8995 19.613 17.8517C21.033 16.8038 22.7516 16.2388 24.5163 16.2395C25.3671 16.2386 26.2128 16.3703 27.023 16.6298C27.0786 16.6466 27.1372 16.6504 27.1945 16.6409C27.2518 16.6314 27.3061 16.6088 27.3533 16.5749C27.4004 16.5411 27.4391 16.4968 27.4665 16.4456C27.4938 16.3944 27.509 16.3376 27.5108 16.2796C27.5872 12.9282 26.4318 9.66515 24.2637 7.10847C25.2868 5.10964 25.487 1.81746 23.208 0.401516C21.1141 -0.719228 18.4398 0.661689 17.0439 2.62549C14.8856 2.10015 12.6328 2.10015 10.4745 2.62549C9.08107 0.661689 6.4043 -0.719228 4.29039 0.414024C2.03139 1.81746 2.23153 5.10964 3.25471 7.10847C0.929615 9.85499 -0.225778 13.4037 0.0366222 16.9927C0.299023 20.5816 1.95829 23.9246 4.65814 26.3037ZM16.8082 12.0853C16.8431 12.0504 16.8844 12.0227 16.93 12.0039C16.9755 11.985 17.0243 11.9753 17.0736 11.9753C17.1229 11.9753 17.1717 11.985 17.2173 12.0039C17.2628 12.0227 17.3042 12.0504 17.3391 12.0853C18.035 12.781 18.8018 12.781 19.4977 12.0853C19.5681 12.0149 19.6636 11.9753 19.7631 11.9753C19.8626 11.9753 19.9581 12.0148 20.0285 12.0851C20.0989 12.1555 20.1384 12.251 20.1385 12.3505C20.1385 12.45 20.099 12.5455 20.0286 12.6159C19.8302 12.8493 19.5835 13.0368 19.3054 13.1654C19.0274 13.294 18.7247 13.3606 18.4184 13.3606C18.1121 13.3606 17.8094 13.294 17.5314 13.1654C17.2533 13.0368 17.0066 12.8493 16.8082 12.6159C16.7379 12.5455 16.6983 12.4501 16.6983 12.3506C16.6983 12.2511 16.7379 12.1556 16.8082 12.0853ZM18.7898 17.2402C18.7898 18.9663 16.5383 20.3673 13.7592 20.3673C10.9801 20.3673 8.72859 18.9663 8.72859 17.2402C8.72859 15.5141 10.9801 14.1131 13.7592 14.1131C16.5383 14.1131 18.7898 15.5141 18.7898 17.2402ZM7.48977 12.0853C7.52462 12.0504 7.56599 12.0227 7.61154 12.0039C7.65708 11.985 7.7059 11.9753 7.7552 11.9753C7.80449 11.9753 7.85331 11.985 7.89885 12.0039C7.9444 12.0227 7.98577 12.0504 8.02062 12.0853C8.71658 12.781 9.48334 12.781 10.1793 12.0853C10.2497 12.0149 10.3451 11.9753 10.4446 11.9753C10.5442 11.9753 10.6396 12.0148 10.71 12.0851C10.7804 12.1555 10.82 12.251 10.82 12.3505C10.82 12.45 10.7805 12.5455 10.7102 12.6159C10.5049 12.8411 10.2567 13.0229 9.98019 13.1508C9.70365 13.2787 9.40434 13.3501 9.09984 13.3606C8.79538 13.35 8.4961 13.2787 8.21961 13.1508C7.94311 13.0229 7.69497 12.841 7.48977 12.6159C7.41942 12.5455 7.3799 12.4501 7.3799 12.3506C7.3799 12.2511 7.41942 12.1556 7.48977 12.0853Z" fill="#41FDA8"/>
<path d="M24.5162 16.99C23.0319 16.99 21.5809 17.4301 20.3467 18.2548C19.1125 19.0795 18.1506 20.2516 17.5825 21.6229C17.0145 22.9943 16.8659 24.5033 17.1554 25.9591C17.445 27.4149 18.1598 28.7522 19.2094 29.8018C20.259 30.8514 21.5962 31.5662 23.0521 31.8558C24.5079 32.1453 26.0169 31.9967 27.3883 31.4287C28.7596 30.8606 29.9317 29.8987 30.7564 28.6645C31.581 27.4303 32.0212 25.9793 32.0212 24.495C32.0188 22.5053 31.2273 20.5978 29.8203 19.1909C28.4134 17.7839 26.5059 16.9924 24.5162 16.99ZM24.5162 29.6234C23.5019 29.6234 22.5104 29.3226 21.667 28.7591C20.8237 28.1956 20.1663 27.3946 19.7782 26.4575C19.39 25.5204 19.2885 24.4893 19.4864 23.4945C19.6842 22.4997 20.1727 21.5859 20.8899 20.8686C21.6071 20.1514 22.5209 19.663 23.5157 19.4651C24.5105 19.2672 25.5417 19.3688 26.4788 19.7569C27.4159 20.1451 28.2168 20.8024 28.7803 21.6458C29.3438 22.4891 29.6446 23.4807 29.6446 24.495C29.6431 25.8546 29.1023 27.1582 28.1409 28.1196C27.1794 29.0811 25.8759 29.6219 24.5162 29.6234Z" fill="#41FDA8"/>
</svg>
