<svg width="22" height="22" viewBox="0 0 22 22" fill="none" xmlns="http://www.w3.org/2000/svg">
<path d="M10.7622 0.757642C10.8371 0.527314 11.1629 0.527314 11.2378 0.757642L13.638 8.14493C13.6715 8.24793 13.7675 8.31767 13.8758 8.31767H21.6433C21.8854 8.31767 21.9861 8.62758 21.7902 8.76993L15.5062 13.3355C15.4186 13.3992 15.3819 13.512 15.4154 13.615L17.8157 21.0023C17.8905 21.2326 17.6269 21.4242 17.4309 21.2818L11.1469 16.7162C11.0593 16.6526 10.9407 16.6526 10.8531 16.7162L4.56905 21.2818C4.37312 21.4242 4.1095 21.2326 4.18434 21.0023L6.58462 13.615C6.61808 13.512 6.58142 13.3992 6.4938 13.3355L0.209797 8.76993C0.0138683 8.62758 0.114562 8.31767 0.356743 8.31767H8.1242C8.2325 8.31767 8.32849 8.24793 8.36196 8.14493L10.7622 0.757642Z" fill="#41FDA8"/>
</svg>
